# xmcd
# 
# Track frame offsets:
#     150
#     17729
#     42994
#     59838
#     83268
# 
# Disc length: 1344
# 
# Revision: 0
# Processed by: cddbd v1.5.2PL0 Copyright (c) Steve Scherf et al.
# Submitted via: fre:ac v1.0.17
# 
DISCID=36053e05
DTITLE=MUCC - ハイデ [初回盤]
DYEAR=2016
DGENRE=Rock
TTITLE0=ハイデ
TTITLE1=KILLEЯ
TTITLE2=JOKER
TTITLE3=悲しみとDANCEを
TTITLE4=ハイデ -Original Karaoke-
EXTD=
EXTT0=
EXTT1=
EXTT2=
EXTT3=
EXTT4=
PLAYORDER=
